<?xml version="1.0" encoding="utf-8"?>
<!-- Generator: Adobe Illustrator 25.0.0, SVG Export Plug-In . SVG Version: 6.00 Build 0)  -->
<svg version="1.1" id="Layer_1" xmlns="http://www.w3.org/2000/svg" xmlns:xlink="http://www.w3.org/1999/xlink" x="0px" y="0px"
	 viewBox="0 0 441 117" style="enable-background:new 0 0 441 117;" xml:space="preserve">
<style type="text/css">
	.st0{fill:#000029;}
	.st1{fill:url(#SVGID_1_);}
	.st2{fill:#FFFFFF;}
	.st3{fill:url(#SVGID_2_);}
	.st4{fill:url(#SVGID_3_);}
	.st5{display:none;fill:#FFFFFF;}
	.st6{fill:url(#SVGID_4_);}
	.st7{fill:#808080;}
	.st8{fill:url(#SVGID_5_);}
	.st9{fill:url(#SVGID_6_);}
	.st10{fill:url(#SVGID_7_);}
	.st11{fill:url(#SVGID_8_);}
	.st12{fill:url(#SVGID_9_);}
	.st13{fill:url(#SVGID_10_);}
	.st14{fill:url(#SVGID_11_);}
	.st15{fill:url(#SVGID_12_);}
	.st16{fill:url(#SVGID_13_);}
	.st17{fill:url(#SVGID_14_);}
	.st18{fill:url(#SVGID_15_);}
	.st19{fill:url(#SVGID_16_);}
	.st20{fill:url(#SVGID_17_);}
	.st21{fill:url(#SVGID_18_);}
	.st22{fill:url(#SVGID_19_);}
	.st23{fill:url(#SVGID_20_);}
	.st24{fill:url(#SVGID_21_);}
	.st25{fill:url(#SVGID_22_);}
	.st26{fill:url(#SVGID_23_);}
	.st27{fill:url(#SVGID_24_);}
	.st28{fill:url(#SVGID_25_);}
	.st29{fill:url(#SVGID_26_);}
	.st30{fill:url(#SVGID_27_);}
	.st31{fill:url(#SVGID_28_);}
	.st32{fill:url(#SVGID_29_);}
	.st33{fill:url(#SVGID_30_);}
	.st34{fill:url(#SVGID_31_);}
	.st35{fill:url(#SVGID_32_);}
	.st36{fill:url(#SVGID_33_);}
</style>
<rect x="-2" y="-2" class="st5" width="445" height="121"/>
<g>
	<linearGradient id="SVGID_1_" gradientUnits="userSpaceOnUse" x1="68.3007" y1="24.4269" x2="44.6287" y2="76.7255">
		<stop  offset="0" style="stop-color:#24D0D6"/>
		<stop  offset="1" style="stop-color:#EA3FE0"/>
	</linearGradient>
	<path class="st1" d="M85.58,36.34c-0.73-0.92,0.23-2.08,0.09-3.12c0.12-3.86-3.78-7.15-7.56-6.34c-3.61,0.53-6.16,4.51-5.1,8.01
		c0.8,3.34,4.44,5.37,7.74,4.67c8.6,12.58,7.04,28.61-3.32,39.57c-1.98-2.28-4.51-4.1-7.32-5.19c9.19-8.24,10.66-22.69,1.13-32.21
		c-4.83-4.58-5.21-12.39,0.46-17.52c-19.07-9.6-41.91-0.88-50.31,17.76c-7.35,2.01-6.91,9.55-2.62,12.03
		c3.1,2.04,7.72,0.61,9.19-2.78c1.19-2.39,0.49-5.25-1.12-7.27c7.07-14.16,21.82-20.26,35.93-16.86c-0.98,2.84-1.26,5.87-0.89,8.84
		c-12.41-3.53-25.38,2.89-28.72,16.22c-1.78,6.19-9.13,9.6-15.11,7.38c1.2,20.19,18.71,36.51,40.77,34.75
		c2.37,3.2,7.66,3.3,10.07,0.1c2.58-2.97,1.54-8.08-2.02-9.77c-3.43-1.94-8.06,0.12-9.18,3.83C42.82,89.66,29.4,80.45,25.03,65.8
		c2.95-0.56,5.71-1.85,8.09-3.65c3.18,12.48,15.23,20.48,28.21,16.81c6.31-1.71,13.09,2.99,14.12,9.35
		C92.75,76.98,97.3,53.32,85.58,36.34z M80.08,35.17c-2.43,1.22-4.24-2.81-1.79-3.86C80.78,29.96,82.67,34.16,80.08,35.17z
		 M21.23,50.43c-1.37-0.59-1.66-2.64-0.46-3.55c1.18-1.14,3.37-0.23,3.47,1.38C24.5,49.85,22.64,51.17,21.23,50.43z M62.64,88.6
		c1.26-1.03,3.34-0.04,3.4,1.57c0.15,1.52-1.61,2.78-2.99,2.08C61.59,91.68,61.35,89.49,62.64,88.6z M38.54,55.51
		c0.72-8.03,8.03-14.76,16.1-14.79c9.18-0.43,17.11,7.65,17.11,16.17c0,9.26-7.48,16.8-16.71,16.93v0.1
		C45.26,74.26,37.33,64.93,38.54,55.51z"/>
	<g>
		<g>
			<g>
				<g>
					<path class="st7" d="M131.29,37.92c5.58-0.28,11.3,1.57,15.41,5.41c4,3.62,6.38,8.91,6.56,14.29
						c0.3,6.49-2.73,13.06-7.92,16.99c-6.45,5-15.81,5.7-22.93,1.72c-5.63-3.03-9.73-8.87-10.4-15.26
						c-0.81-5.88,1.04-12.11,5.11-16.47C120.73,40.59,125.96,38.26,131.29,37.92z M130.08,43.62c-7,0.87-12.81,7.46-12.58,14.54
						c-0.25,4.65,2.04,9.28,5.71,12.09c5.78,4.56,14.91,4.07,20.06-1.24c5.63-5.4,5.78-15.25,0.41-20.87
						C140.29,44.43,135,42.84,130.08,43.62z"/>
				</g>
				<path class="st7" d="M188.61,38.34L188.61,38.34c1.59,0,2.87,1.29,2.87,2.87v34.33c0,1.59-1.29,2.87-2.87,2.87l0,0
					c-1.59,0-2.87-1.29-2.87-2.87V41.22C185.74,39.63,187.02,38.34,188.61,38.34z"/>
				<path class="st7" d="M198.11,39.19c2.14-1.17,5.14,0.82,4.79,3.27c0.21,3.01-4,4.38-5.88,2.24
					C195.31,43.09,196.01,40.08,198.11,39.19z"/>
				<path class="st7" d="M161,51.95c3.77-2.9,9.09-3.34,13.47-1.65c4.39,1.57,7.09,6.23,7.2,10.76c0.21,4.89,0.1,9.78,0.1,14.68
					c0,1.52-1.24,2.76-2.77,2.76c-0.02,0-0.04,0-0.06,0c-1.52,0-2.76-1.24-2.76-2.77c0-4.5,0.03-8.99-0.02-13.49
					c-0.01-2.33-0.89-4.78-2.76-6.24c-2.49-1.61-5.88-1.61-8.39-0.04c-2.35,1.67-2.78,4.76-2.86,7.43
					c-0.02,4.11-0.01,8.22-0.01,12.34c0,1.53-1.24,2.77-2.77,2.77c-0.05,0-0.1,0-0.15,0c-1.53,0-2.76-1.24-2.75-2.77
					c0-4.23-0.02-8.46,0.01-12.69C156.6,59,157.69,54.58,161,51.95z"/>
				<path class="st7" d="M199.57,49.75c0.02,0,0.04,0,0.06,0c1.54,0,2.79,1.25,2.79,2.79c0,7.7,0,15.41,0,23.11
					c0,1.52-1.23,2.76-2.76,2.76l-0.13,0c-1.52,0-2.76-1.24-2.76-2.76c0-7.7-0.02-15.41,0-23.11
					C196.77,51,198.03,49.75,199.57,49.75z"/>
				<path class="st7" d="M212.5,51.24c4.77-2.84,11.47-2.62,15.74,1.05c2.62,2.34,3.92,5.88,3.96,9.35
					c0.15,4.69,0.07,9.38,0.07,14.08c0,1.53-1.24,2.77-2.77,2.77c-0.02,0-0.04,0-0.06,0c-1.52,0-2.76-1.24-2.76-2.76
					c0-4.5,0.03-8.99-0.02-13.49c-0.01-2.31-0.88-4.75-2.73-6.22c-2.48-1.64-5.89-1.64-8.41-0.08c-2.35,1.67-2.79,4.74-2.87,7.42
					c-0.01,4.12-0.01,8.24,0,12.37c0,1.53-1.24,2.76-2.76,2.76c-0.05,0-0.11,0-0.16,0c-1.53,0-2.75-1.25-2.75-2.77
					c0-4.5-0.05-9,0.04-13.5C207.23,58.06,208.74,53.5,212.5,51.24z"/>
				<g>
					<path class="st7" d="M241.41,52.31c5.83-4.63,14.95-3.67,19.9,1.79c2.99,3.19,4.2,7.73,3.71,12.03
						c-7.83,0.03-15.67-0.01-23.5,0.02c0.58,2.69,2.07,5.36,4.73,6.43c3.37,1.59,7.52,0.93,10.36-1.42
						c0.47-0.39,1.07-0.58,1.68-0.58c0.02,0,0.04,0,0.07,0c2.55,0.01,3.66,3.19,1.7,4.83c-1.48,1.24-3.19,2.2-5.08,2.74
						c-6.12,2.16-13.47-0.44-16.96-5.88C233.79,66.06,235.35,56.78,241.41,52.31z M247.74,55.2c-3.15,0.74-5.21,3.56-6.21,6.46
						c5.84,0,11.69,0.02,17.53-0.01C257.89,56.89,252.48,53.5,247.74,55.2z"/>
				</g>
			</g>
		</g>
		<g>
			<linearGradient id="SVGID_2_" gradientUnits="userSpaceOnUse" x1="271.7169" y1="58.2055" x2="420.193" y2="58.2055">
				<stop  offset="0" style="stop-color:#EA3FE0"/>
				<stop  offset="1" style="stop-color:#24D0D6"/>
			</linearGradient>
			<path class="st3" d="M282.54,54.87c2.99-3.35,7.39-8.04,12.08-13.07c1.72-1.85,0.41-4.86-2.12-4.86
				c-2.83,0.58,0.44-1.6-17.03,17.51c-0.01-4.15-0.01-8.53,0-14.59c0-3.81-5.8-3.8-5.8,0c0.02,40.34-0.9,38.88,2.68,39.59l0.48,0
				c1.46-0.01,2.65-1.2,2.65-2.66c0.01-4.68-0.07-9.36,0.03-14.03c0.95-1.24,2.16-2.32,3.3-3.53
				c13.97,18.35,13.63,20.23,16.24,20.23c0.01,0,0.01,0,0.02,0c2.16-0.01,3.41-2.46,2.14-4.22
				C292.35,68.53,287.44,61.67,282.54,54.87z"/>
			<linearGradient id="SVGID_3_" gradientUnits="userSpaceOnUse" x1="271.7169" y1="64.0953" x2="420.193" y2="64.0953">
				<stop  offset="0" style="stop-color:#EA3FE0"/>
				<stop  offset="1" style="stop-color:#24D0D6"/>
			</linearGradient>
			<path class="st4" d="M341.05,48.51c-3.32,0.35-6.16,1.72-8.02,3.86l0,0c-4,4.63-3.47,9.06-3.42,24.49
				c0.01,2.71,3.1,2.91,2.85,2.8c1.54,0,2.8-1.25,2.82-2.78c0.12-12.61-1.58-22.28,6.22-22.71c2.52-0.14,3.6-3.27,1.75-4.94
				C342.65,48.69,341.85,48.43,341.05,48.51z"/>
			<linearGradient id="SVGID_4_" gradientUnits="userSpaceOnUse" x1="271.7169" y1="63.7978" x2="420.193" y2="63.7978">
				<stop  offset="0" style="stop-color:#EA3FE0"/>
				<stop  offset="1" style="stop-color:#24D0D6"/>
			</linearGradient>
			<path class="st6" d="M425.14,60.55c-0.19-5-2.91-9.41-6.87-11.21c-2.53-1.32-5.39-1.28-8.14-1.05c-3.28,0.37-6.26,2.4-7.95,5.27
				c-4-6.6-12.77-6.55-17.26-3.57c-7.38,4.53-5.92,14.36-5.95,26.75c0,1.51,1.22,2.76,2.73,2.77c0.17-0.03,1.21,0.21,2.22-0.8
				c1.09-1.08,0.82-1.98,0.81-6.46c-0.03-9.41-0.74-15,3.46-17.64c4.68-2.59,10.99-0.58,11.07,7.75
				c0.16,15.06-0.46,15.06,0.84,16.35c1.7,1.68,4.95,0.64,4.95-1.97c-0.01-4.81-0.02-9.65,0.01-14.41c0.02-3.47,1.34-6.37,3.49-7.73
				c2.59-1.41,5.94-1.26,8.12,0.36c3.99,3.06,3.04,9.89,3.05,21.79c0,3.65,5.58,3.61,5.56-0.02c-0.01-1.58,0.01-3.16,0.02-4.74
				C425.33,68.25,425.36,64.36,425.14,60.55z"/>
			<linearGradient id="SVGID_5_" gradientUnits="userSpaceOnUse" x1="271.7169" y1="64.2705" x2="420.193" y2="64.2705">
				<stop  offset="0" style="stop-color:#EA3FE0"/>
				<stop  offset="1" style="stop-color:#24D0D6"/>
			</linearGradient>
			<path class="st8" d="M369.06,51.32c0.02,3.11,0.05,10.82-0.13,15.16c-0.18,10.52-15.19,10.58-15.37-0.02
				c-0.17-4.13-0.15-11.26-0.13-15.14c0.02-3.72-5.66-3.79-5.67-0.03c-0.01,3-0.03,10.42,0.01,14.59
				c0.05,18.88,26.9,18.91,26.95,0.01c0.04-4.18,0.02-11.6,0.01-14.6C374.72,47.54,369.04,47.56,369.06,51.32z"/>
			<linearGradient id="SVGID_6_" gradientUnits="userSpaceOnUse" x1="271.7169" y1="64.2199" x2="420.193" y2="64.2199">
				<stop  offset="0" style="stop-color:#EA3FE0"/>
				<stop  offset="1" style="stop-color:#24D0D6"/>
			</linearGradient>
			<path class="st9" d="M321.16,49.3c-1.58,1.59-0.36,2.74-0.95,17.18c-0.18,10.54-15.19,10.56-15.37-0.02
				c-0.17-4.13-0.15-11.26-0.13-15.14c0.02-3.76-5.66-3.78-5.67-0.03c-0.01,3.75-0.02,10.64,0.01,14.59
				c0.05,18.77,26.9,18.81,26.95,0.01c0.04-4.22,0.02-11.62,0.01-14.6C326,48.77,322.93,47.52,321.16,49.3z"/>
		</g>
	</g>
</g>
</svg>
